<?xml version="1.0" encoding="UTF-8"?><svg id="Layer_1" xmlns="http://www.w3.org/2000/svg" viewBox="0 0 275.76 368.94"><defs><style>.cls-1{fill:#1d1d1b;}.cls-1,.cls-2{stroke:#026634;stroke-miterlimit:10;stroke-width:3px;}.cls-3{fill:#fff;}.cls-2{fill:none;}.cls-4{fill:#026634;}.cls-5{fill:#705116;}.cls-6{fill:#063;}</style></defs><rect class="cls-2" x="44.33" y="41.43" width="190" height="190" transform="translate(-55.56 143.22) rotate(-46.39)"/><rect class="cls-2" x="44.33" y="41.43" width="190" height="190"/><line class="cls-1" x1="44.33" y1="98.43" x2="98.62" y2="41.43"/><line class="cls-1" x1="44.33" y1="177.14" x2="101.33" y2="231.43"/><line class="cls-1" x1="180.04" y1="231.43" x2="234.33" y2="174.44"/><line class="cls-1" x1="177.33" y1="41.43" x2="234.33" y2="95.72"/><g><path class="cls-4" d="M150.89,208.4c-1.57-5.89-2.14-12.08-1.68-18.18,1.2,5.37-.04,12.7,4.07,16.77,6.37,.14,5.19-19.39,12.71-22.16,5.51-1.67,2.02,14.31,12.45,10.4,2.23-1.17,5.41-2.88,6.16-5.43,.69-6.61-4.24-28.82,.7-31.76,.82,10.4,1.2,20.85,1.12,31.29,30.71-25.01,12.05-36.41,18.64-61.67,2.58,17.33,3.91,36.7-4.55,52.6-5.36,10.49-13.12,8.86-16.41,14.78-2.65,5.49-10.96,8.27-14.47,2.23-1.27-2.37-1.1-5.61-3.03-7.42-7.83,2.44-5.66,15.14-9.68,21.13-2.26,3.24-5.55,.71-6.01-2.56Z"/><path class="cls-4" d="M74.89,158.29c6.07,19.48,33.39,5.94,39.65-6.97,1.97-4.51-1.8-12.14,2.99-15.06,5.19,37.45-54.29,55.44-43.42,10.72,.37-.91,.49-2.63-.79-2.75-5.61-2.95,2.17-15.16,5.76-17.71-1.37,3.64-5.52,6.63-4.4,10.96,.24,2.15,2.1,.89,3.33,1.18-3.06,5.98-4.76,13.05-3.13,19.62Z"/><path class="cls-4" d="M120.27,132.41c3.32,5.86,7.9-1.95,9.93-4.93,.27,3.2,3.31,6.71,6.35,4.05-1.27-1.91-1.16-4.72,.27-6.5,5,4.56-3,16.67-7.58,8.92-1.35,5.36-11.36,7.37-10.73,.23-2.89,.09-4.67,4.58-7.77,4.53,.87,9.68-5.1,17.51-13.8,21.1,.25-1.72-.72-4.47,.77-5.66,5.37-1.5,15.02-9.23,9.39-14.68-7.57,.83-9.66-.8-8.07-8.63,1.74-7.44,9.36-3.46,10.25,2.29,1.34,2.93,8.71-3.66,10.46-5.13,1.03,1.07,.15,2.94,.52,4.41m-15.76,2.5c.54,0,1.15-.03,1.51-.45-1.51-2.83-5.33-4.69-5.54-.06,.44,1.21,2.88,.22,4.03,.51Z"/><path class="cls-4" d="M106.5,125.58c-3.92-.11-7.54-3.48-8.14-7.59-1.82,5.43-7.2,12.2-13.28,7.83-5.16-5.03-2.19-13.33-2.41-19.74-4.58,3.51-2.43,11.57-4.45,16.74-.55,3.05-3.84,4.79-6.05,2.13-3.25-5.04-2.87-11.95-1.73-17.64,.6,4.32-.27,9.54,2.32,13.23,6.27,4.64,5.28-19.24,12.24-20.84,.4,7.36-5.17,28.6,9.28,20.33,4.38-7.11-.55-16.14,1.48-23.86,4.74,6.58,.11,30.05,14.36,22.69,1.45-6.23-7.37-15.21-4.57-24.05,1.91,2.12,3.41,4.65,4.38,7.39-.52-.38-1.16-.56-1.79-.51,2.77,5.91,8.22,22.39-1.63,23.87Z"/><path class="cls-4" d="M106.49,191.92c34.13-20.75,10.79-21.18,12.52-45.26,7.18,8.9,8.06,21.13,8.68,32.19,3.99-7.73,10.63-13.88,18.39-17.06,1.98-1.9-3.92-9.32,3.6-11.43,2.13-.22,3.97,1.45,5.53,3.01,11.08,8.85-4.29,6.65-5.82,13.55-1.45-5.23-11.63,4.21-13.8,6.26,11.7-.27,23.39-.81,35.06-1.63-1.07,3.71-4.09,6.72-7.65,7.64-6.89,1.89-24.92,7-26.27,14.34,1.83,4.24,11.25,3.56,9.13,9.51-12.95,.77-19.75-13.81-20.22-25.19-4.38,9.56-22.4,28.16-32.46,18.06-3.03-7.01,.71-15.53,1.29-22.88,.86,4.26-.92,8.57-1.2,12.92-1.19,8.27,7.55,10.16,13.21,5.95m40.25-10.53l6.25-3.47c-8.22,.76-17.1-.37-24.93,2.4,.68,4.77,2.3,10.18,6.12,13.33,2.86-5.4,6.15-9.31,12.56-12.26m2.87-21.83c.99-.25,1.81-1.07,2.82-1.19-.39-1.79-6.51-4.89-4.98-1.37,1.06,.56,.82,2.77,2.16,2.56Z"/><path class="cls-4" d="M174.87,165.77c3.79,1.73-1.54,5.82-1.92,8.39,.72,3.77,7.26,1.83,8.47-1.12-6.63-12.17-17.37-21.13-25.96-31.84,.99-.62,2.35-1.22,3.19-.38,7.9,8.7,17.62,16.63,23.22,27.08,3.28,18.04-18,17.62-7-2.14Z"/><path class="cls-4" d="M181.65,80.25c-.03,21.57,2.14,43.4,3.14,65.03,.15,2.4,.06,5.31-1.9,6.53-2.44-26.93-2.95-54.81-4.02-81.53,2.25,3.54,3.92,7.5,4.92,11.63l-2.15-1.67Z"/><path class="cls-4" d="M156.66,139.5c-8.14,3.54-11.2,13.66-18.03,18.82-11.81,8.36-14.57-12.61-8.5-19.08-6.71,20.64,5.9,20.7,15.62,5.25,2.7-3.28,5.32-6.98,8.99-9.17,4.5-3.29,12.93-.54,9.67,5.85-1.86-2.34-5.13-2.95-7.75-1.67Z"/><path class="cls-4" d="M163.59,97.21c3.84,11.1-9.54,17.75-12.51,4.89-.98-2.2-2.18,5.44-3.17,6.21-2.39-2.57,.46-5.99,1.34-8.62,1.74-6.69-3.94-14.05-.66-20.51,4.03,6.65,1,32.39,14.44,22.92-2.8-7.38-7.46-15.04-5.48-23.2,1.8,2.18,3.29,4.63,4.43,7.26-.53,.59-1.07-.43-1.54-.59-1.48,.18,3.4,9.23,3.16,11.63Z"/><path class="cls-4" d="M116.69,75.94c-.72-.49-1.46-.96-2.21-1.39,.71,16.96,1.17,33.96,2.54,50.88,.4,1.71,.02,4.9-2.32,4.44,0-21.87-4.35-44.11-2.69-65.8,2.01,3.74,3.58,7.74,4.67,11.88Z"/><path class="cls-4" d="M167.95,99.19c-.67-11.84-2.29-23.92-.95-35.74,1.91,3.6,3.29,7.49,4.67,11.35,.15,.31-.02,.69-.36,.45-4.51-8.7,.02,25.28-.63,27.46-1.46-.42-2.4-1.97-2.73-3.52Z"/><path class="cls-4" d="M135.02,90.47c-3.73,5.12-1.47,12.5-4.18,18.05-8.18,8.47-10.03-16.36-6.1-19.36-1.27,5.18-2.04,13.17,2.94,16.63,5.51-5.96,3.34-16.6,9.85-21.9,2.89,6.54-5.36,19.49,4.43,21.78,.7,1.02,.51,2.53,.84,3.72,.08,.5,.07,1.18-.39,1.33-3.12,1.05-6-1.51-6.69-4.5-1.64-2.25,1.1-17.43-.69-15.74Z"/><path class="cls-4" d="M195.11,90.71c-.95,.03-2.04-2.75-2.76-.96,.68,15.23,2.74,30.52,1.74,45.77-1.6-1.42-1.76-3.91-1.81-6.12-.35-14.81-1.35-29.6-2.99-44.31-.23-2.05,.16-4.19,1.2-5.94,1.93,3.66,3.48,7.54,4.62,11.55Z"/><path class="cls-4" d="M146.47,70.21l-1.98-1.83c-.16,19.04,1.88,38.14,2.53,57.2-1.26-.82-2.3-2.18-2.4-3.75-.4-20.98-4.45-42.44-2.74-63.24,2.08,3.59,3.64,7.52,4.59,11.61Z"/><path class="cls-4" d="M84.13,156.52c2.3,1.16,5,.95,7.5,.43-.06,1.52,1.65,4.04-.27,4.79-2.79,1.08-6.04,1.19-8.63-.34-6.45-4.25-6.61-14.98-3.39-21.42-1.2,5.65-.83,13.44,4.8,16.54Z"/><path class="cls-4" d="M93.86,91.76c-4.1-7.03,.76,25.05-.4,26.98-.49,.35-1.95,1.34-2.17,.48-.51-12.98-2.71-26-1.51-38.98,.92,1.53,5.84,11.48,4.08,11.52Z"/><path class="cls-4" d="M138.66,117.4c3.8,6.65,10.27,11.17,14.23,17.72-1.29-.27-1.19,1.83-2.4,1.5-5.24-4.79-8.85-11.38-13.32-16.96-1.59-2.97-6.97-4.62-5.57-8.61,3.38,.45,7.38,3.37,9.96,5.98-.8,.19-2.63-.51-2.9,.37Z"/><path class="cls-4" d="M169.32,110.7c3.53,4.08,5.2,37.11,.84,40.9,.69-13.44-.73-26.85-1.56-40.26-.06-.54,.33-1.19,.72-.64Z"/><path class="cls-4" d="M199.97,153.11c-3.08-10.4-14.77-16.63-15.17-27.6,8.34,11.7,21.56,23.18,17.71,39.15-.21-3.97-1.07-7.89-2.54-11.55Z"/><path class="cls-4" d="M173.3,108.25c.58,4.97,8.07,8.17,6.46,14.65-4.52-5.38-7.69-12.08-13.01-16.57-.65-1.15-.39-3.12-.18-4.37,1.53,1.08,14.47,7.32,6.73,6.29Z"/><path class="cls-4" d="M206.63,105.38c.11,.43,.22,.9,.06,1.31-6.35-8.67,.88,12.95-3.63,15.04-.58-9.3-2.82-18.7-1.32-28,2.15,3.61,3.81,7.55,4.9,11.66Z"/><path class="cls-4" d="M135.26,210.29c-9.1,3.17-18.7-.42-26.15-5.86,6.4,1.29,12.94,5.2,19.91,4.43,3.11,.57,13.03-3.46,13.79-.03,.79,4.07-5.8,7.95-6.84,2.56,0-.43-.13-1.21-.7-1.1m5.26,2.2c.28-.93-.7-3.02-1.64-3.54-.82,.74,.27,3.86,1.64,3.54Z"/><path class="cls-4" d="M94.06,164.85c-1.81-12.03-1.67-24.25-2.31-36.37-.05-1.22,1.68-.63,2.28-1.53,.63,11.36,.8,22.76,1.91,34.08,.24,1.64,.29,4.03-1.5,4.76-.27-.21-.34-.59-.39-.94Z"/><path class="cls-4" d="M114.59,172.7c-3.9,1.16-2.83,7.56-3.8,10.86-1.19-1.68-1.75-5.22-3.36-6-2.3,4.14-5.62-1.32-3.94-4.07,3.26-3.35,5.73,2.72,6.94,5.17,1.7-3.45,.62-10.16,5.31-11.17,.57-.08,.89,.4,.98,.92,.47,1.69,.51,7.09-2.12,4.28Z"/><path class="cls-4" d="M207.79,119.79c-.13,1.66-11.5,20.89-12.19,18.09-.66-1.49,.3-3.07,1.17-4.25,4.55-6.5,8.68-13.34,12.35-20.45-.14,2.25-.59,4.48-1.33,6.6Z"/><path class="cls-4" d="M210.71,120.75c6.11,7.36,5.34,20.94-.02,28.75,6.7-13.57-2.53-20.35,.02-28.75Z"/><path class="cls-4" d="M123.11,65.57c-1.08-5.22,7.47-5.07,9.71-2.31-1.84,4.19-6.27,6.94-10.63,6.6,4.48-1.82,9.47-4.56,.92-4.28Z"/><path class="cls-4" d="M195.85,164.08c-.11,2.24-.54,4.52-1.64,6.49,0-7.8-1.89-18.3,.02-24.87,2.97,3.31,1.45,13.7,1.61,18.38Z"/><path class="cls-4" d="M179.95,162.34c-1.63-.69-1.08-2.63-.12-3.68,2.64-2.24,10.5-17.9,12.33-16.53,1.43,4.27-6.99,11.8-8.9,16.15-1.13,1.09-1.81,3.97-3.31,4.06Z"/><path class="cls-4" d="M138.52,78.35c-.7,2.71-2.3,.48-3.73,.7-3.66,5.72-10.73,9.43-17.5,8.44,3.52-1.37,16.82-5.46,16.04-9.57-2.75-1.66,1.74-3.97,1.23-6.04,2.5,.99,4.66,3.66,3.97,6.47m-3.12-3.47c-2.48,.42-2.3,2.08,0,1.5,.55-.23,.8-1.56,0-1.5m.74,2.65c.47,.47,2.46,.59,1.72-.4-.46-.16-.71-.67-.92-1.13-.54-1.2-1.16,1.12-.81,1.53Z"/><path class="cls-4" d="M80.13,98.44c-7.16,16.03-9.61-4.5,.74-11.58-1.23,3.45-4.88,6.11-4.16,10.13,.44,2.7,1.58,1.96,3.41,1.45Z"/><path class="cls-4" d="M122.8,203.98c-1.54-.96-1.34-3.63-2.8-4.72-2.18,3.6-4.8-1.55-2.98-3.76,2.61-1.22,4.18,2.15,4.72,4.25,1.95,1.43,.92-8.88,5.08-8.65,.97,.79,1.19,5.53-.44,4.97-3-1.58-3.31,5.95-3.58,7.91Z"/><path class="cls-4" d="M149.55,122.06c2.89-6.45,11.08-8.2,17.38-9.45-2.13,4.47-12.57,4.72-17.38,9.45Z"/><path class="cls-4" d="M99.14,71.98c2.44-1.05,6.09-.49,8.12,1.12-1.36,4.45-6.4,7.33-10.76,6.79,1.68-.93,6.1-1.84,6.24-3.72-1.47-.57-3.07-.73-4.61-.45-.23,.04-.38-.25-.42-.5-.21-1.25,.38-2.61,1.43-3.24h0Z"/><path class="cls-4" d="M193.45,174.87c-6.9-1.74-2.33,4.5,2.68,.64-.74,3.53-4.41,4.98-7.4,6.24-.72-1.18,1.61-1.71,1.09-2.59-.72-.46-1.1-1.37-1.12-2.26-.33-4.74,7.69-7.59,4.75-2.03Z"/><path class="cls-4" d="M138.48,146.29c-3.81,9.71-7.72-1.74,.85-9.86-.14,2.53-3.37,4.34-3.14,7.31-.33,1.1,.73,2.99,1.83,1.85,.41-.36,.65,.37,.46,.7Z"/><path class="cls-4" d="M178.76,143.64c-4.57,10.67-6.83-4.48,1.38-9.95-1.3,2.25-6.82,8.84-1.68,9.38,.23-.11,.35,.3,.3,.56Z"/><path class="cls-4" d="M172.23,96.02c-1.43-4.97,2-9.7,5.28-13.1-.86,2.02-7.21,10.21-1.23,9.33-.02,1.76-2.07,5.72-4.05,3.77Z"/><path class="cls-4" d="M102.82,86.46c-.12-.76-.29-1.83,.47-2.29,1.19,1.21-.08,4.71,2.15,4.61,1.44-1.08-.58-3.24,.4-4.62,2.1,1.79,1.58,10.91-1.88,6.53-.13-.28-.54-.24-.75-.03-.46,1.56-2.68,2.63-3.27,.56-.37-.99,.04-2.71-1.03-3.15-.34-.84,.91-1.7,1.24-2.46,.93,.71,.03,2.53,.44,3.57,2.01,1.95,2.66-1.05,2.25-2.71Z"/><path class="cls-4" d="M151.8,72.63c-.28,1.22,1.14,2.36,2.07,1.3,1.03-.61-.77-6.29,1.06-4.68,.56,1.31,.3,2.93,1.04,4.14,.99,.9,1.61-.87,1.23-1.7-.04-.83-.78-2.23,.04-2.79,1.91,1.61,1.89,10.07-1.66,6.69-1.03-1.03-2.91,3.23-4.03,.68-2.2-2.49,.4-10.22,.25-3.63Z"/><path class="cls-4" d="M155.96,197.82c-1.23,1.38-2.84,.43-2.75-1.31-.44-4.41,2.4-7.98,4.99-11.22,.28,1.35-1.7,2.75-2.19,4.09-.78,1.37-1.68,4.42,.25,5.08,2.43-.87,.58,2.63-.29,3.35Z"/><path class="cls-4" d="M163.39,166.29c-5.03,10.23-6.08-4.55,.8-9.54-.39,2.25-3.1,3.82-3.05,6.48-.44,1.4,.86,3.42,2.21,1.99,.17,.32,.13,.72,.04,1.07Z"/><path class="cls-4" d="M160.21,130.9c-.52,.53-1.29,.55-1.71-.09-2.76-4.29,1.5-9.73,4.53-12.71-1.06,2.74-4.4,5.13-3.29,8.45,.26,.52,.87,.87,1.38,.63,1.64,.33-.13,3.1-.92,3.72Z"/><path class="cls-4" d="M144.82,137.45c-.02-1.62-.03-3.28,.47-4.82,3.55,2.12,1.42,8.09-.41,10.81l-.06-5.99Z"/><path class="cls-4" d="M108.59,204.23c-.09-.12,.01-.32,.15-.32,.06,.04,.1,.12,.11,.19-.05,.09-.16,.14-.26,.12h0Z"/><path class="cls-4" d="M86.28,188.29c-2.72-4.24,1.51-9.24,4.21-12.49-.48,2.64-5.63,6.73-2.09,8.71,2.48-.03-.58,4.18-2.11,3.78Z"/><path class="cls-4" d="M79.52,139.24c.21,.44-.51,.17,0,.02v-.02Z"/><path class="cls-4" d="M122.03,70.1c-.03,.13-.26-.01-.17-.11,.04-.12,.25,.01,.18,.11h0Z"/><path class="cls-4" d="M87.79,144.76c-.42,1.54-1.39,2.91-2.68,3.76-4.34-3.88,.68-10.38,3.82-13.46-1.07,2.12-6.72,9.19-1.4,9.2,.2-.13,.32,.26,.26,.5h0Z"/><path class="cls-4" d="M124.95,121.45c-5.56,10.6-5.63-5.2,.85-8.28-1.48,2.4-4.08,5.16-2.76,8.13,.5,.47,1.54-.62,1.91,.15Z"/><path class="cls-4" d="M187.85,108.86c-4.94,7.84-4.75-4.92,1.19-9.64-.35,2.58-4.45,5.04-2.47,8.21,.41,1.07,1.43-.93,1.9-.08-.45,.3-.5,.96-.63,1.51Z"/><path class="cls-4" d="M150.93,57.83c2.55,1.55,4.19,6.24,2.75,8.84,.1-3.22-3.82-5.45-2.75-8.84Z"/></g><rect class="cls-6" x="3" y="275.96" width="270.28" height="28.07"/><path class="cls-3" d="M24.8,295.49v-10.92h1.45v10.92h-1.45Zm9.92-3.51l1.36-.12c-.11,4.5,9.31,2.08,4.65-.87-1.3-.5-4.48-.79-5.21-2.23-2.45-5.01,7.59-6.14,7.56-1.11l-1.39,.11c-1.37-5.18-10.85,.31-.15,1.99,6.87,4.68-6.71,9.37-6.82,2.23h0Zm16.98,3.51v-10.92h1.45v9.64h5.37v1.28h-6.82Zm13.74,0l4.19-10.92h1.59l4.45,10.92h-1.64l-1.26-3.31h-4.6l-1.18,3.31h-1.53Zm3.14-4.48h3.72c-.49-1.31-1.59-4.13-1.92-5.31-.25,1.39-1.31,3.95-1.8,5.31h0Zm14.6,4.48v-10.92h2.17c.38,1.16,2.81,8.37,3.1,9.35,.32-1.03,2.8-8.14,3.21-9.35h1.93v10.92h-1.39v-9.14l-3.19,9.14h-1.3l-3.15-9.3v9.3h-1.39Zm19.38,0v-10.92h1.45v10.92h-1.45Zm18.17-3.83l1.45,.37c-1.42,6.13-10.39,3.86-9.64-2.08-.67-5.54,7.87-7.95,9.46-2.38l-1.42,.34c-1.29-4.31-7.19-1.9-6.54,2.04-.74,4.47,5.74,6.49,6.69,1.72h0Zm18.09,3.83v-10.92h1.48l5.73,8.57v-8.57h1.39v10.92h-1.48l-5.73-8.57v8.57h-1.39Zm17.46,0v-10.92h7.88v1.28h-6.44v3.36h6.02v1.28h-6.02v3.72h6.7v1.28h-8.14Zm19.32,0v-9.64h-3.6v-1.28h8.65v1.28h-3.6v9.64h-1.45Zm14.82,0l-2.87-10.92h1.5c.37,1.68,1.83,7.81,2.11,9.39,.41-1.82,2.09-7.64,2.57-9.39h1.74c.65,2.41,2.12,7.04,2.42,9.39,.33-1.54,1.87-7.72,2.26-9.39h1.45l-2.99,10.92h-1.41c-.24-.87-2.47-8.96-2.64-9.6-.13,.61-2.4,8.77-2.62,9.6h-1.51Zm18.47-5.31c-.58-7.57,10.91-7.52,10.45-.13,.48,7.29-10.78,7.33-10.45,.13h0Zm1.49,.03c-.35,5.61,7.96,5.49,7.46-.16,.47-5.67-8.05-5.88-7.46,.16h0Zm17.24,5.29v-10.92c1.43,.08,5.86-.23,7.06,.29,2.82,1.28,1.84,5.62-1.41,5.65,1.72,.72,2.91,3.53,3.96,4.97h-1.8c-1.77-2.65-2.61-5.56-6.35-4.85v4.85h-1.45Zm1.45-6.1c1.73-.19,5.72,.82,5.78-1.84,.03-2.6-4.16-1.58-5.78-1.77v3.61h0Zm15.87,6.1v-10.92h1.45v5.41l5.42-5.41h1.96l-4.58,4.43,4.78,6.49h-1.91l-3.89-5.51-1.79,1.73v3.78h-1.45Z"/><path class="cls-5" d="M19.83,328.66c-.52,3.97-2.64,3.74-4.66,.83,1.42-3.92,2.3-4.02,4.66-.83h0Zm101.06-8.16c-.37-2.26-3.17,.14-3.73,1.06-1.35-.63-2.09,.23-2.51,1.5-.1,.32-.01,.44,.14,.44,.38,.04,.74-.82,1.17-.58,1.94,1.09,4.91-.5,4.93-2.41h0Zm-1.22,.68c.05,.4-1.25,.72-1.88,.55,.34-.58,1.49-1.07,1.88-.55h0Zm-13.34,.5c.34,2.56,3.84,.98,3.36-1.16-.75-3.67-3.14-1.65-3.36,1.16h0Zm2.66-.58c-.07,.49-1.94,.75-1.95-.08,.24-1.6,1.76-.77,1.95,.08h0Zm-50.53,.5c-1.08,.37-2,2.08-1.43,2.71,1.42-1.23,8.54-3.46,7.91-6.19-.07-.6-6.25,3.56-6.48,3.48h0Zm203.69-1.15c-.37-2.26-3.17,.14-3.73,1.06-1.35-.63-2.09,.23-2.51,1.5-.1,.32-.01,.44,.14,.44,.38,.04,.74-.82,1.17-.58,1.94,1.09,4.91-.5,4.93-2.41h0Zm-1.22,.68c.05,.4-1.25,.72-1.88,.55,.34-.58,1.49-1.07,1.88-.55h0Zm-106.15,6.11c-1.08,.37-2,2.08-1.43,2.71,1.42-1.23,8.54-3.46,7.91-6.19-.07-.6-6.25,3.56-6.48,3.48h0Zm57.64,11.23c-1.13,.45-1.97,1.96-1.43,2.71l7.04-3.95c.37-.05,1.36-2.13,.63-2.33l-6.24,3.57h0Zm13.56-17.11c-.61,.11-1.4,1.69-1.03,2.1,1.44-.99,7.18-2.34,7.02-4.71,.09-.51-5.87,2.71-5.98,2.61h0Zm2.75,5.19c.26-.44,.48,.13,.93,.05,2.25,.15,3-3.45,1.94-4.64-.66,.03-.48,2.68-1.83,2.38-.32,0-.5-.19-.52-.46-.66-2.75-1.15,2.68-2.44,2.13-1.42,.22-.63-1.67-1.26-1.96-2.58,2.6,1.11,6.73,3.17,2.5h0Zm18.87-4.92c.34,2.56,3.84,.98,3.36-1.16-.75-3.67-3.14-1.65-3.36,1.16h0Zm2.66-.58c-.07,.49-1.94,.75-1.95-.08,.24-1.6,1.76-.77,1.95,.08h0Zm-206.75,40.22c-.93,.43-1.46,1.39-1.1,2.08l5.42-3.04c.4-.23,.67-.97,.67-1.72,0-.48-4.85,2.75-4.99,2.68h0Zm85.95-44.21c-1.51,.18-2.58,2.72-.75,3.42-.65,.98-2.68,2.21-3.58,2.85,1.59,.64,3.68-1.42,4.28-2.5l.5,.31c.33-.24,.74-1.12,.08-1.4,.32-.8,.64-2.51-.53-2.68h0Zm-.41,1.24c.46-.03,.35,.87,.21,1.08-.86-.3-.94-.9-.21-1.08Zm-40.67,2.34c-.93,.43-1.47,1.39-1.1,2.08l5.42-3.04c.4-.23,.67-.97,.67-1.72,0-.48-4.84,2.75-4.99,2.68h0Zm-7.52,17.49c.45,3.33,4.97,1.27,4.37-1.51-1.04-4.81-4.03-2.16-4.37,1.51h0Zm3.46-.75c-.09,.63-2.52,.98-2.54-.11,.31-2.08,2.29-1,2.54,.11h0Zm-73.36-20.32c-1.51,.18-2.58,2.72-.75,3.42-.65,.98-2.68,2.21-3.58,2.85,1.59,.64,3.68-1.42,4.28-2.5l.5,.31c.33-.24,.74-1.12,.08-1.4,.32-.8,.64-2.51-.53-2.68h0Zm-.41,1.24c.46-.03,.35,.87,.21,1.08-.86-.3-.94-.9-.21-1.08Zm18.49,18.89c-.57,.1-1.29,1.56-.96,1.94,1.25-.89,7.13-2.34,6.4-4.47l-5.44,2.53h0Zm2.55,4.81c4.53,.98,2.92-7.01,2.12-3.14,.04,.84-1.39,1.62-1.64,.66-.04-.5-.12-.7-.31-.7-1.05,.39-.56,2.85-2.01,2.67-1.27,.16-.53-1.57-1.11-1.81-2.39,2.41,1.03,6.23,2.94,2.32h0Zm73.71,24.84c-.93,.43-1.46,1.39-1.1,2.08l5.42-3.04c.4-.23,.67-.97,.67-1.72-.02-.48-4.84,2.75-4.99,2.68h0Zm-34.26-23.69c-1.25-5.01,.1-29.17-3.84-16.28,.11,4.83,1.25,12.61-.95,17.74,.05-8.95-8.72-17.58-16.33-19.13-1.31,.17-1.06,4.84-.29,5.6,2.34,2.48,4.42,4.11,6.1,2.05,4.01,1.9,8.97,7.42,9.68,13.18-2.02,4.05-9,7.98-12.25,10.19,9.99,1.35,15.11-4.47,15.39-14.27,.03-.44,.11-.62,.15-.62,.98,5.02,.95,18.86,8.11,8.27,.93,5.83,6.18,5.35,8.95,.6,2.87,7.12,9.59,.73,9.08-4.31-.02-1.22-.12-4.11-1.34-3.22-1.98,2.96-2.21,2.76-1.02,5.63-1.07,2.08-4.91,.18-4.8-2.56-.08-.7,.5-1.71-.18-1.94-1.58,1.54-2.87,5.84-6.2,5.55-3.08,.26-2.4-3.08-3.4-4.23-1.9,1.47-1.69,3.55-4.22,4.38-2.75-.35-2.36-4.04-2.66-6.62h0Zm39.96-19.71c-.61-1.67-2.09,2.38-2.1,3.24,.84,3.65,1.55,11.34,0,15.18-1.41-3.97-20.53-25.8-19.28-14.81-.32,1.76,3.76,4.96,4.94,5.42,.61,0,1.23-1,1.3-1.13,4.26,2.69,9.43,8.34,12.05,12.61-3.82,8.59-8.22,2.52-7.34,9.13,.08,1.87,1.14,1.28,2.61,1.44,10.49,.13,9.53-3.25,6.81-10.67,1.55-5.23,1.75-8.82,1.6-13.48,2.56-2.87,.5-4.14-.59-6.93h0Zm-.93,25.75c-1.16,.44-2.61,.54-4.05,.6,1.37-1.36,1.51-1.78,2.8-3.92,.96,1.44,1.09,2.62,1.24,3.32h0Zm110.64,5.88c-8.37-3.13-2.99-1.8-10.56,0v-4.4c7.53-2.15,3.04-2.49,10.56,.06v4.34h0Zm-4.36,6.06c-.42,1.87-.7,2.76-1.52,2.9-.76-.06-4.36-.96-3.37-2.22,.38-.61,1.12-3.14,1.85-3.03,.89,.35,3.55,1.03,3.04,2.35h0Zm21.38-31.55c-.14,1.33-.68,2.23-1.38,3.64-.4,.03-1.25-.72-1.55-.95-.3-.28-1.51-1.05-1.44-1.46,.44-1.06,.59-2.84,1.6-3.41,1.06,.25,2.63,.95,2.77,2.18h0Zm3.66,5.36c-.71,4.24-2.56,4.15-4.49,.8,.32-.86,.99-2.61,1.33-3.47,1.21,.46,3.13,1.52,3.16,2.66h0Zm-5.52,.82c-.91,3.99-1.45,3.84-4.34,1.38-.06-.37,.8-3.98,1.83-3.92,.73,.57,2.96,1.22,2.51,2.54h0Zm14.37,19.31c-2.72,.14-4.16-2.29-5.16-4.34-1.27,4.5-5,5.12-8.14,2.41-2.44,2.23-9.38,3.09-10.28-.43-1.15,1.42-3.76,2.13-5.97,2.36v-4.34c3.27,1.24,11.39-7.28,8.01-1.18,2.35,1.57,7.71,1.49,8.95-1.19,.14-.44,1.78-2,2.24-1.1-.13,.47-.64,1.82-.6,2.22,1.34,1.02,4.01,.73,4.66-.79,1.32-3.17,3.33-4.5,1.93-.38,1.14,1.51,2.39,2.11,4.35,2.4v4.34h0Zm4.23-5.1c-.4,3.03-1.25,5.03-4.23,5.1v-4.34c4.04,.09,2.26-3.49,1.9-5.79-1.3-4.38-1.5-11.84-3.46-15.19,.47-1.66,.17-5.53,1.71-4.66,.36,1.42,.86,2.33,2.3,3.02,.12,1.34-.42,2.69-1,4.09,1.11,5.84,2.73,12.17,2.77,17.77h0Zm9.42,1.9c-1.42,11.18-3.07-8.39-3.3-10.93-.21-4.71-1.89-9.58-1.26-14.1,2.09-10.18,3.93,23.41,4.56,25.04h0ZM14.7,330.55c-.19,4.44-2.59,3.17-4.5,.96-.25-.29,1.21-2.7,1.55-3.32,.84,.44,2.36,1.65,2.96,2.36h0Zm12.59,24.55c-5.21-.15-6.37-2.54-8.19-7.61-7.53,9.62-14.87-1.18-1.44-6.74,.23-1.58-.48-3.96,.84-5.1,2.06,5.99,1.61,13.95,8.79,15.11v4.34h0Zm-8.66-9.47c-.19-.8-.56-2.47-.71-3.28-.33,1.33-2.86,3.09-4.14,4.04,1.73,.26,3.32-.01,4.84-.76Zm20.46,9.47c-2.48-.29-5.1-1.83-5.78-4.45-2.29,3.22-2.78,4.23-6.02,4.45v-4.34c5.82,.39,4.71-4.59,7.54-4.76-.04,.4-.09,1.28-.11,1.69-.02,.89,3.45,3.28,4.37,3.07v4.34h0Zm-2.12,5.78c-.51,4.04-2.6,3.8-4.65,.87,1.22-3.42,2.16-4.34,4.65-.87h0Zm-4.58,1.59c-.29,4.12-2.39,3.42-4.5,.94-.17-.18,1.42-3.21,1.55-3.27,.96,.46,2.15,1.49,2.96,2.33h0Zm19.99-14.77c-.22,5.58-5.28,4.87-8.37,2.47-.85,.88-2.34,4.93-4.92,4.95v-4.35c2.77-.11,4.04-2.85,5.68-4.24h.49c1.56-6.26,7.47-5.12,7.12,1.18h0Zm-2.66,.32c-.07-2.65-2.19-3.2-3.4-1.27,1.14,.79,1.97,1.09,3.4,1.27Zm60.92,11.24c2.16,2.46-6.36,5.41-6.84,6.14-2.62,.56,.03-1.82,.94-2.45-1.26-.26-2.01-.21-2.49-1.91,.17-2.99,5.88-7.47,5.3-2.3-.09,.74-.9,1.06-1.57,.81-.11-1.13-2.1-.41-2.01,.35,.86,1,2.01,1.17,3.14,1.43,1.23-.42,2.49-1.37,3.55-2.06h0Zm11.97-7.37c-1.42,11.18-3.07-8.39-3.3-10.93-.21-4.71-1.89-9.58-1.26-14.1,2.09-10.18,3.93,23.41,4.56,25.04h0Zm16.19-23.23c-.52,3.97-2.64,3.72-4.66,.83,1.37-3.9,2.35-3.98,4.66-.83h0Zm-5.13,1.88c-.14,4.37-2.66,3.2-4.5,.96-.23-.28,1.21-2.71,1.55-3.32,.84,.43,2.36,1.65,2.96,2.36h0Zm12.59,24.55c-5.21-.15-6.37-2.54-8.19-7.61-7.64,9.64-14.78-1.21-1.44-6.74,.23-1.58-.5-3.96,.84-5.1,2.05,5.99,1.6,13.95,8.79,15.11v4.34h0Zm-8.66-9.47c-.19-.8-.56-2.47-.71-3.28-.35,1.3-2.86,3.1-4.14,4.04,1.73,.26,3.32-.01,4.84-.76Zm72.55,9.47c-4.04,.3-7.69-1.09-5.74-5.15-19.03,2.29-38.91,6.08-58.14,5.15v-4.31c19.78,.21,39.36-2.2,58.67-4.92-2.9-6.1-12.58-1.69-17.78-1.74-7.84,.95-19.04,2.04-25.78,1.87-4.61-.16-17.43,.93-11.08-7.06,4-6.3,11.51-10.11,17.53-13.09,4.21-1.74,5.15-1.95,1.91,2.14-6.41,3.11-13.3,6.78-18.58,11.65,.98,3.07,11.36,1.78,14.84,2.07,8.48,.06,13.38,.06,22.3-1.45,6.29-.58,10.68-2.53,16.1-.71,2.8,1.02,5.37,2.89,4.48,5.87-.39,1.52-1.6,4.13-3.22,4.22,.18,1.69,3.26,1.02,4.51,1.13v4.34h0Z"/></svg>