<?xml version="1.0" encoding="UTF-8"?><svg id="Layer_2" xmlns="http://www.w3.org/2000/svg" viewBox="0 0 272.86 272.86"><defs><style>.cls-1{fill:#1d1d1b;}.cls-1,.cls-2{stroke:#026634;stroke-miterlimit:10;stroke-width:3px;}.cls-2{fill:none;}.cls-3{fill:#026634;}</style></defs><g id="Layer_1-2"><rect class="cls-2" x="41.43" y="41.43" width="190" height="190" transform="translate(-56.45 141.12) rotate(-46.39)"/><rect class="cls-2" x="41.43" y="41.43" width="190" height="190"/><line class="cls-1" x1="41.43" y1="98.43" x2="95.72" y2="41.43"/><line class="cls-1" x1="41.43" y1="177.14" x2="98.43" y2="231.43"/><line class="cls-1" x1="177.14" y1="231.43" x2="231.43" y2="174.44"/><line class="cls-1" x1="174.44" y1="41.43" x2="231.43" y2="95.72"/><g><path class="cls-3" d="M147.99,208.4c-1.57-5.89-2.14-12.08-1.68-18.18,1.2,5.37-.04,12.7,4.07,16.77,6.37,.14,5.19-19.39,12.71-22.16,5.51-1.67,2.02,14.31,12.45,10.4,2.23-1.17,5.41-2.88,6.16-5.43,.69-6.61-4.24-28.82,.7-31.76,.82,10.4,1.2,20.85,1.12,31.29,30.71-25.01,12.05-36.41,18.64-61.67,2.58,17.33,3.91,36.7-4.55,52.6-5.36,10.49-13.12,8.86-16.41,14.78-2.65,5.49-10.96,8.27-14.47,2.23-1.27-2.37-1.1-5.61-3.03-7.42-7.83,2.44-5.66,15.14-9.68,21.13-2.26,3.24-5.55,.71-6.01-2.56Z"/><path class="cls-3" d="M71.99,158.29c6.07,19.48,33.39,5.94,39.65-6.97,1.97-4.51-1.8-12.14,2.99-15.06,5.19,37.45-54.29,55.44-43.42,10.72,.37-.91,.49-2.63-.79-2.75-5.61-2.95,2.17-15.16,5.76-17.71-1.37,3.64-5.52,6.63-4.4,10.96,.24,2.15,2.1,.89,3.33,1.18-3.06,5.98-4.76,13.05-3.13,19.62Z"/><path class="cls-3" d="M117.37,132.41c3.32,5.86,7.9-1.95,9.93-4.93,.27,3.2,3.31,6.71,6.35,4.05-1.27-1.91-1.16-4.72,.27-6.5,5,4.56-3,16.67-7.58,8.92-1.35,5.36-11.36,7.37-10.73,.23-2.89,.09-4.67,4.58-7.77,4.53,.87,9.68-5.1,17.51-13.8,21.1,.25-1.72-.72-4.47,.77-5.66,5.37-1.5,15.02-9.23,9.39-14.68-7.57,.83-9.66-.8-8.07-8.63,1.74-7.44,9.36-3.46,10.25,2.29,1.34,2.93,8.71-3.66,10.46-5.13,1.03,1.07,.15,2.94,.52,4.41m-15.76,2.5c.54,0,1.15-.03,1.51-.45-1.51-2.83-5.33-4.69-5.54-.06,.44,1.21,2.88,.22,4.03,.51Z"/><path class="cls-3" d="M103.6,125.58c-3.92-.11-7.54-3.48-8.14-7.59-1.82,5.43-7.2,12.2-13.28,7.83-5.16-5.03-2.19-13.33-2.41-19.74-4.58,3.51-2.43,11.57-4.45,16.74-.55,3.05-3.84,4.79-6.05,2.13-3.25-5.04-2.87-11.95-1.73-17.64,.6,4.32-.27,9.54,2.32,13.23,6.27,4.64,5.28-19.24,12.24-20.84,.4,7.36-5.17,28.6,9.28,20.33,4.38-7.11-.55-16.14,1.48-23.86,4.74,6.58,.11,30.05,14.36,22.69,1.45-6.23-7.37-15.21-4.57-24.05,1.91,2.12,3.41,4.65,4.38,7.39-.52-.38-1.16-.56-1.79-.51,2.77,5.91,8.22,22.39-1.63,23.87Z"/><path class="cls-3" d="M103.59,191.92c34.13-20.75,10.79-21.18,12.52-45.26,7.18,8.9,8.06,21.13,8.68,32.19,3.99-7.73,10.63-13.88,18.39-17.06,1.98-1.9-3.92-9.32,3.6-11.43,2.13-.22,3.97,1.45,5.53,3.01,11.08,8.85-4.29,6.65-5.82,13.55-1.45-5.23-11.63,4.21-13.8,6.26,11.7-.27,23.39-.81,35.06-1.63-1.07,3.71-4.09,6.72-7.65,7.64-6.89,1.89-24.92,7-26.27,14.34,1.83,4.24,11.25,3.56,9.13,9.51-12.95,.77-19.75-13.81-20.22-25.19-4.38,9.56-22.4,28.16-32.46,18.06-3.03-7.01,.71-15.53,1.29-22.88,.86,4.26-.92,8.57-1.2,12.92-1.19,8.27,7.55,10.16,13.21,5.95m40.25-10.53l6.25-3.47c-8.22,.76-17.1-.37-24.93,2.4,.68,4.77,2.3,10.18,6.12,13.33,2.86-5.4,6.15-9.31,12.56-12.26m2.87-21.83c.99-.25,1.81-1.07,2.82-1.19-.39-1.79-6.51-4.89-4.98-1.37,1.06,.56,.82,2.77,2.16,2.56Z"/><path class="cls-3" d="M171.98,165.77c3.79,1.73-1.54,5.82-1.92,8.39,.72,3.77,7.26,1.83,8.47-1.12-6.63-12.17-17.37-21.13-25.96-31.84,.99-.62,2.35-1.22,3.19-.38,7.9,8.7,17.62,16.63,23.22,27.08,3.28,18.04-18,17.62-7-2.14Z"/><path class="cls-3" d="M178.75,80.25c-.03,21.57,2.14,43.4,3.14,65.03,.15,2.4,.06,5.31-1.9,6.53-2.44-26.93-2.95-54.81-4.02-81.53,2.25,3.54,3.92,7.5,4.92,11.63l-2.15-1.67Z"/><path class="cls-3" d="M153.76,139.5c-8.14,3.54-11.2,13.66-18.03,18.82-11.81,8.36-14.57-12.61-8.5-19.08-6.71,20.64,5.9,20.7,15.62,5.25,2.7-3.28,5.32-6.98,8.99-9.17,4.5-3.29,12.93-.54,9.67,5.85-1.86-2.34-5.13-2.95-7.75-1.67Z"/><path class="cls-3" d="M160.69,97.21c3.84,11.1-9.54,17.75-12.51,4.89-.98-2.2-2.18,5.44-3.17,6.21-2.39-2.57,.46-5.99,1.34-8.62,1.74-6.69-3.94-14.05-.66-20.51,4.03,6.65,1,32.39,14.44,22.92-2.8-7.38-7.46-15.04-5.48-23.2,1.8,2.18,3.29,4.63,4.43,7.26-.53,.59-1.07-.43-1.54-.59-1.48,.18,3.4,9.23,3.16,11.63Z"/><path class="cls-3" d="M113.79,75.94c-.72-.49-1.46-.96-2.21-1.39,.71,16.96,1.17,33.96,2.54,50.88,.4,1.71,.02,4.9-2.32,4.44,0-21.87-4.35-44.11-2.69-65.8,2.01,3.74,3.58,7.74,4.67,11.88Z"/><path class="cls-3" d="M165.05,99.19c-.67-11.84-2.29-23.92-.95-35.74,1.91,3.6,3.29,7.49,4.67,11.35,.15,.31-.02,.69-.36,.45-4.51-8.7,.02,25.28-.63,27.46-1.46-.42-2.4-1.97-2.73-3.52Z"/><path class="cls-3" d="M132.12,90.47c-3.73,5.12-1.47,12.5-4.18,18.05-8.18,8.47-10.03-16.36-6.1-19.36-1.27,5.18-2.04,13.17,2.94,16.63,5.51-5.96,3.34-16.6,9.85-21.9,2.89,6.54-5.36,19.49,4.43,21.78,.7,1.02,.51,2.53,.84,3.72,.08,.5,.07,1.18-.39,1.33-3.12,1.05-6-1.51-6.69-4.5-1.64-2.25,1.1-17.43-.69-15.74Z"/><path class="cls-3" d="M192.21,90.71c-.95,.03-2.04-2.75-2.76-.96,.68,15.23,2.74,30.52,1.74,45.77-1.6-1.42-1.76-3.91-1.81-6.12-.35-14.81-1.35-29.6-2.99-44.31-.23-2.05,.16-4.19,1.2-5.94,1.93,3.66,3.48,7.54,4.62,11.55Z"/><path class="cls-3" d="M143.57,70.21l-1.98-1.83c-.16,19.04,1.88,38.14,2.53,57.2-1.26-.82-2.3-2.18-2.4-3.75-.4-20.98-4.45-42.44-2.74-63.24,2.08,3.59,3.64,7.52,4.59,11.61Z"/><path class="cls-3" d="M81.23,156.52c2.3,1.16,5,.95,7.5,.43-.06,1.52,1.65,4.04-.27,4.79-2.79,1.08-6.04,1.19-8.63-.34-6.45-4.25-6.61-14.98-3.39-21.42-1.2,5.65-.83,13.44,4.8,16.54Z"/><path class="cls-3" d="M90.96,91.76c-4.1-7.03,.76,25.05-.4,26.98-.49,.35-1.95,1.34-2.17,.48-.51-12.98-2.71-26-1.51-38.98,.92,1.53,5.84,11.48,4.08,11.52Z"/><path class="cls-3" d="M135.76,117.4c3.8,6.65,10.27,11.17,14.23,17.72-1.29-.27-1.19,1.83-2.4,1.5-5.24-4.79-8.85-11.38-13.32-16.96-1.59-2.97-6.97-4.62-5.57-8.61,3.38,.45,7.38,3.37,9.96,5.98-.8,.19-2.63-.51-2.9,.37Z"/><path class="cls-3" d="M166.42,110.7c3.53,4.08,5.2,37.11,.84,40.9,.69-13.44-.73-26.85-1.56-40.26-.06-.54,.33-1.19,.72-.64Z"/><path class="cls-3" d="M197.07,153.11c-3.08-10.4-14.77-16.63-15.17-27.6,8.34,11.7,21.56,23.18,17.71,39.15-.21-3.97-1.07-7.89-2.54-11.55Z"/><path class="cls-3" d="M170.4,108.25c.58,4.97,8.07,8.17,6.46,14.65-4.52-5.38-7.69-12.08-13.01-16.57-.65-1.15-.39-3.12-.18-4.37,1.53,1.08,14.47,7.32,6.73,6.29Z"/><path class="cls-3" d="M203.73,105.38c.11,.43,.22,.9,.06,1.31-6.35-8.67,.88,12.95-3.63,15.04-.58-9.3-2.82-18.7-1.32-28,2.15,3.61,3.81,7.55,4.9,11.66Z"/><path class="cls-3" d="M132.36,210.29c-9.1,3.17-18.7-.42-26.15-5.86,6.4,1.29,12.94,5.2,19.91,4.43,3.11,.57,13.03-3.46,13.79-.03,.79,4.07-5.8,7.95-6.84,2.56,0-.43-.13-1.21-.7-1.1m5.26,2.2c.28-.93-.7-3.02-1.64-3.54-.82,.74,.27,3.86,1.64,3.54Z"/><path class="cls-3" d="M91.16,164.85c-1.81-12.03-1.67-24.25-2.31-36.37-.05-1.22,1.68-.63,2.28-1.53,.63,11.36,.8,22.76,1.91,34.08,.24,1.64,.29,4.03-1.5,4.76-.27-.21-.34-.59-.39-.94Z"/><path class="cls-3" d="M111.69,172.7c-3.9,1.16-2.83,7.56-3.8,10.86-1.19-1.68-1.75-5.22-3.36-6-2.3,4.14-5.62-1.32-3.94-4.07,3.26-3.35,5.73,2.72,6.94,5.17,1.7-3.45,.62-10.16,5.31-11.17,.57-.08,.89,.4,.98,.92,.47,1.69,.51,7.09-2.12,4.28Z"/><path class="cls-3" d="M204.89,119.79c-.13,1.66-11.5,20.89-12.19,18.09-.66-1.49,.3-3.07,1.17-4.25,4.55-6.5,8.68-13.34,12.35-20.45-.14,2.25-.59,4.48-1.33,6.6Z"/><path class="cls-3" d="M207.81,120.75c6.11,7.36,5.34,20.94-.02,28.75,6.7-13.57-2.53-20.35,.02-28.75Z"/><path class="cls-3" d="M120.21,65.57c-1.08-5.22,7.47-5.07,9.71-2.31-1.84,4.19-6.27,6.94-10.63,6.6,4.48-1.82,9.47-4.56,.92-4.28Z"/><path class="cls-3" d="M192.95,164.08c-.11,2.24-.54,4.52-1.64,6.49,0-7.8-1.89-18.3,.02-24.87,2.97,3.31,1.45,13.7,1.61,18.38Z"/><path class="cls-3" d="M177.05,162.34c-1.63-.69-1.08-2.63-.12-3.68,2.64-2.24,10.5-17.9,12.33-16.53,1.43,4.27-6.99,11.8-8.9,16.15-1.13,1.09-1.81,3.97-3.31,4.06Z"/><path class="cls-3" d="M135.63,78.35c-.7,2.71-2.3,.48-3.73,.7-3.66,5.72-10.73,9.43-17.5,8.44,3.52-1.37,16.82-5.46,16.04-9.57-2.75-1.66,1.74-3.97,1.23-6.04,2.5,.99,4.66,3.66,3.97,6.47m-3.12-3.47c-2.48,.42-2.3,2.08,0,1.5,.55-.23,.8-1.56,0-1.5m.74,2.65c.47,.47,2.46,.59,1.72-.4-.46-.16-.71-.67-.92-1.13-.54-1.2-1.16,1.12-.81,1.53Z"/><path class="cls-3" d="M77.23,98.44c-7.16,16.03-9.61-4.5,.74-11.58-1.23,3.45-4.88,6.11-4.16,10.13,.44,2.7,1.58,1.96,3.41,1.45Z"/><path class="cls-3" d="M119.9,203.98c-1.54-.96-1.34-3.63-2.8-4.72-2.18,3.6-4.8-1.55-2.98-3.76,2.61-1.22,4.18,2.15,4.72,4.25,1.95,1.43,.92-8.88,5.08-8.65,.97,.79,1.19,5.53-.44,4.97-3-1.58-3.31,5.95-3.58,7.91Z"/><path class="cls-3" d="M146.65,122.06c2.89-6.45,11.08-8.2,17.38-9.45-2.13,4.47-12.57,4.72-17.38,9.45Z"/><path class="cls-3" d="M96.24,71.98c2.44-1.05,6.09-.49,8.12,1.12-1.36,4.45-6.4,7.33-10.76,6.79,1.68-.93,6.1-1.84,6.24-3.72-1.47-.57-3.07-.73-4.61-.45-.23,.04-.38-.25-.42-.5-.21-1.25,.38-2.61,1.43-3.24h0Z"/><path class="cls-3" d="M190.55,174.87c-6.9-1.74-2.33,4.5,2.68,.64-.74,3.53-4.41,4.98-7.4,6.24-.72-1.18,1.61-1.71,1.09-2.59-.72-.46-1.1-1.37-1.12-2.26-.33-4.74,7.69-7.59,4.75-2.03Z"/><path class="cls-3" d="M135.58,146.29c-3.81,9.71-7.72-1.74,.85-9.86-.14,2.53-3.37,4.34-3.14,7.31-.33,1.1,.73,2.99,1.83,1.85,.41-.36,.65,.37,.46,.7Z"/><path class="cls-3" d="M175.86,143.64c-4.57,10.67-6.83-4.48,1.38-9.95-1.3,2.25-6.82,8.84-1.68,9.38,.23-.11,.35,.3,.3,.56Z"/><path class="cls-3" d="M169.33,96.02c-1.43-4.97,2-9.7,5.28-13.1-.86,2.02-7.21,10.21-1.23,9.33-.02,1.76-2.07,5.72-4.05,3.77Z"/><path class="cls-3" d="M99.92,86.46c-.12-.76-.29-1.83,.47-2.29,1.19,1.21-.08,4.71,2.15,4.61,1.44-1.08-.58-3.24,.4-4.62,2.1,1.79,1.58,10.91-1.88,6.53-.13-.28-.54-.24-.75-.03-.46,1.56-2.68,2.63-3.27,.56-.37-.99,.04-2.71-1.03-3.15-.34-.84,.91-1.7,1.24-2.46,.93,.71,.03,2.53,.44,3.57,2.01,1.95,2.66-1.05,2.25-2.71Z"/><path class="cls-3" d="M148.9,72.63c-.28,1.22,1.14,2.36,2.07,1.3,1.03-.61-.77-6.29,1.06-4.68,.56,1.31,.3,2.93,1.04,4.14,.99,.9,1.61-.87,1.23-1.7-.04-.83-.78-2.23,.04-2.79,1.91,1.61,1.89,10.07-1.66,6.69-1.03-1.03-2.91,3.23-4.03,.68-2.2-2.49,.4-10.22,.25-3.63Z"/><path class="cls-3" d="M153.06,197.82c-1.23,1.38-2.84,.43-2.75-1.31-.44-4.41,2.4-7.98,4.99-11.22,.28,1.35-1.7,2.75-2.19,4.09-.78,1.37-1.68,4.42,.25,5.08,2.43-.87,.58,2.63-.29,3.35Z"/><path class="cls-3" d="M160.49,166.29c-5.03,10.23-6.08-4.55,.8-9.54-.39,2.25-3.1,3.82-3.05,6.48-.44,1.4,.86,3.42,2.21,1.99,.17,.32,.13,.72,.04,1.07Z"/><path class="cls-3" d="M157.31,130.9c-.52,.53-1.29,.55-1.71-.09-2.76-4.29,1.5-9.73,4.53-12.71-1.06,2.74-4.4,5.13-3.29,8.45,.26,.52,.87,.87,1.38,.63,1.64,.33-.13,3.1-.92,3.72Z"/><path class="cls-3" d="M141.92,137.45c-.02-1.62-.03-3.28,.47-4.82,3.55,2.12,1.42,8.09-.41,10.81l-.06-5.99Z"/><path class="cls-3" d="M105.7,204.23c-.09-.12,.01-.32,.15-.32,.06,.04,.1,.12,.11,.19-.05,.09-.16,.14-.26,.12h0Z"/><path class="cls-3" d="M83.38,188.29c-2.72-4.24,1.51-9.24,4.21-12.49-.48,2.64-5.63,6.73-2.09,8.71,2.48-.03-.58,4.18-2.11,3.78Z"/><path class="cls-3" d="M76.62,139.24c.21,.44-.51,.17,0,.02v-.02Z"/><path class="cls-3" d="M119.13,70.1c-.03,.13-.26-.01-.17-.11,.04-.12,.25,.01,.18,.11h0Z"/><path class="cls-3" d="M84.89,144.76c-.42,1.54-1.39,2.91-2.68,3.76-4.34-3.88,.68-10.38,3.82-13.46-1.07,2.12-6.72,9.19-1.4,9.2,.2-.13,.32,.26,.26,.5h0Z"/><path class="cls-3" d="M122.05,121.45c-5.56,10.6-5.63-5.2,.85-8.28-1.48,2.4-4.08,5.16-2.76,8.13,.5,.47,1.54-.62,1.91,.15Z"/><path class="cls-3" d="M184.95,108.86c-4.94,7.84-4.75-4.92,1.19-9.64-.35,2.58-4.45,5.04-2.47,8.21,.41,1.07,1.43-.93,1.9-.08-.45,.3-.5,.96-.63,1.51Z"/><path class="cls-3" d="M148.03,57.83c2.55,1.55,4.19,6.24,2.75,8.84,.1-3.22-3.82-5.45-2.75-8.84Z"/></g></g></svg>